<?xml version="1.0" encoding="UTF-8"?>
<svg width="364px" height="47px" viewBox="0 0 364 47" version="1.1" xmlns="http://www.w3.org/2000/svg" xmlns:xlink="http://www.w3.org/1999/xlink">
    <title>furucombo_logo</title>
    <g id="Page-1" stroke="none" stroke-width="1" fill="none" fill-rule="evenodd">
        <g id="furucombo_logo" fill="#FFFFFF" fill-rule="nonzero">
            <path d="M226.3,13.6 L226.3,12.1 L226.3,12.1 C226.3,11.7 226.1,11.4 225.8,11.2 L224.5,10.5 L223.5,12 L224.5,13.7 L226.3,13.6 Z" id="Path"></path>
            <rect id="Rectangle" transform="translate(192.150800, 15.331480) rotate(-60.209633) translate(-192.150800, -15.331480) " x="191.150856" y="13.7315703" width="1.99988708" height="3.19981932"></rect>
            <rect id="Rectangle" transform="translate(208.817300, 21.702080) rotate(-30.211072) translate(-208.817300, -21.702080) " x="207.217258" y="20.7020541" width="3.20008301" height="2.00005188"></rect>
            <rect id="Rectangle" transform="translate(197.794800, 18.555600) rotate(-60.204661) translate(-197.794800, -18.555600) " x="196.794807" y="16.9556108" width="1.99998645" height="3.19997832"></rect>
            <rect id="Rectangle" transform="translate(203.303230, 21.749490) rotate(-60.204661) translate(-203.303230, -21.749490) " x="202.303237" y="20.1495008" width="1.99998645" height="3.19997832"></rect>
            <rect id="Rectangle" transform="translate(214.313660, 18.510240) rotate(-30.211072) translate(-214.313660, -18.510240) " x="212.713618" y="17.5102141" width="3.20008301" height="2.00005188"></rect>
            <rect id="Rectangle" transform="translate(219.925480, 15.303160) rotate(-30.218906) translate(-219.925480, -15.303160) " x="218.325496" y="14.3031702" width="3.19996752" height="1.9999797"></rect>
            <rect id="Rectangle" transform="translate(201.113140, 3.908780) rotate(-30.193334) translate(-201.113140, -3.908780) " x="199.713194" y="2.90881855" width="2.79989206" height="1.9999229"></rect>
            <rect id="Rectangle" transform="translate(196.396220, 6.617280) rotate(-30.198286) translate(-196.396220, -6.617280) " x="194.996204" y="5.61726826" width="2.80003289" height="2.00002349"></rect>
            <rect id="Rectangle" transform="translate(191.612640, 9.394780) rotate(-30.193334) translate(-191.612640, -9.394780) " x="190.212694" y="8.39481855" width="2.79989206" height="1.9999229"></rect>
            <path d="M206,2.2 L206.8,2.7 L207.8,1 L206.5,0.3 C206.2,0.1 205.8,0.1 205.5,0.3 L204.2,1 L205.2,2.7 L206,2.2 Z" id="Path"></path>
            <rect id="Rectangle" transform="translate(220.464270, 9.300090) rotate(-60.212480) translate(-220.464270, -9.300090) " x="219.46424" y="7.90004755" width="2.00006065" height="2.80008491"></rect>
            <rect id="Rectangle" transform="translate(215.621360, 6.625780) rotate(-60.217453) translate(-215.621360, -6.625780) " x="214.621379" y="5.22580709" width="1.9999613" height="2.79994582"></rect>
            <rect id="Rectangle" transform="translate(210.909050, 3.821750) rotate(-60.217453) translate(-210.909050, -3.821750) " x="209.909069" y="2.42177709" width="1.9999613" height="2.79994582"></rect>
            <rect id="Rectangle" transform="translate(225.401898, 28.800345) rotate(-0.223807) translate(-225.401898, -28.800345) " x="224.401891" y="27.4003341" width="2.00001526" height="2.80002136"></rect>
            <rect id="Rectangle" transform="translate(225.401879, 23.300245) rotate(-0.223807) translate(-225.401879, -23.300245) " x="224.401871" y="21.9002341" width="2.00001526" height="2.80002136"></rect>
            <rect id="Rectangle" transform="translate(225.301877, 17.800235) rotate(-0.223807) translate(-225.301877, -17.800235) " x="224.301869" y="16.4002247" width="2.00001526" height="2.80002136"></rect>
            <path d="M224.4,32.9 L224.4,33.8 L223.6,34.3 L224.6,36 L225.9,35.2 C226.2,35 226.4,34.7 226.4,34.3 L226.4,32.8 L224.4,32.9 Z" id="Path"></path>
            <rect id="Rectangle" transform="translate(220.522240, 37.320380) rotate(-30.218906) translate(-220.522240, -37.320380) " x="219.122254" y="36.3203902" width="2.79997158" height="1.9999797"></rect>
            <rect id="Rectangle" transform="translate(215.821780, 39.997660) rotate(-30.218906) translate(-215.821780, -39.997660) " x="214.421794" y="38.9976702" width="2.79997158" height="1.9999797"></rect>
            <rect id="Rectangle" transform="translate(211.019440, 42.806780) rotate(-30.218906) translate(-211.019440, -42.806780) " x="209.619454" y="41.8067902" width="2.79997158" height="1.9999797"></rect>
            <path d="M205.3,44.1 L204.4,45.7 L205.7,46.4 L205.7,46.4 C205.9,46.5 206,46.5 206.2,46.5 C206.4,46.5 206.5,46.5 206.7,46.4 L208,45.6 L207.1,44 L205.3,44.1 Z" id="Path"></path>
            <rect id="Rectangle" transform="translate(206.101576, 40.200359) rotate(-0.211902) translate(-206.101576, -40.200359) " x="205.101569" y="38.8003494" width="2.00001368" height="2.80001915"></rect>
            <rect id="Rectangle" transform="translate(206.101612, 30.500304) rotate(-0.214364) translate(-206.101612, -30.500304) " x="205.101605" y="29.1002941" width="2.000014" height="2.8000196"></rect>
            <rect id="Rectangle" transform="translate(206.101595, 25.600270) rotate(-0.214373) translate(-206.101595, -25.600270) " x="205.101588" y="24.2002598" width="2.000014" height="2.8000196"></rect>
            <rect id="Rectangle" transform="translate(206.101629, 35.300362) rotate(-0.214459) translate(-206.101629, -35.300362) " x="205.101622" y="33.9003525" width="2.00001401" height="2.80001961"></rect>
            <rect id="Rectangle" transform="translate(191.771540, 37.260360) rotate(-60.199689) translate(-191.771540, -37.260360) " x="190.771497" y="35.8602999" width="2.00008584" height="2.80012017"></rect>
            <rect id="Rectangle" transform="translate(201.321000, 42.874900) rotate(-60.184050) translate(-201.321000, -42.874900) " x="200.321031" y="41.4749437" width="1.9999376" height="2.79991264"></rect>
            <rect id="Rectangle" transform="translate(196.473300, 40.011300) rotate(-60.184050) translate(-196.473300, -40.011300) " x="195.473331" y="38.6113437" width="1.9999376" height="2.79991264"></rect>
            <path d="M187.8,33.1 L185.8,33.1 L185.8,34.6 C185.8,35 186,35.3 186.3,35.5 L187.6,36.2 L188.6,34.5 L187.8,34 L187.8,33.1 Z" id="Path"></path>
            <rect id="Rectangle" transform="translate(186.701583, 17.900214) rotate(-0.223807) translate(-186.701583, -17.900214) " x="185.701575" y="16.5002036" width="2.00001526" height="2.80002136"></rect>
            <rect id="Rectangle" transform="translate(186.701582, 23.400314) rotate(-0.223807) translate(-186.701582, -23.400314) " x="185.701575" y="22.0003036" width="2.00001526" height="2.80002136"></rect>
            <rect id="Rectangle" transform="translate(186.801589, 28.900324) rotate(-0.223807) translate(-186.801589, -28.900324) " x="185.801581" y="27.500313" width="2.00001526" height="2.80002136"></rect>
            <path d="M187.7,13.5 L188.3,12.5 L188.5,12.4 L187.5,10.7 L186.2,11.5 C185.9,11.7 185.7,12 185.7,12.4 L185.7,12.4 L185.7,12.4 L185.7,12.4 L185.7,13.9 L187.7,13.9 L187.7,13.5 L187.7,13.5 Z" id="Path"></path>
            <path d="M363.8,12.1 C363.8,11.7 363.6,11.4 363.3,11.2 L363.3,11.2 L343.9,0.2 C343.6,7.2858386e-16 343.2,7.2858386e-16 342.9,0.2 L323.7,11.4 L323.7,11.4 C323.4,11.6 323.2,11.9 323.2,12.3 L323.2,12.3 L323.2,12.3 L323.3,34.6 C323.3,35 323.5,35.3 323.8,35.5 L343.1,46.6 L343.1,46.6 C343.3,46.7 343.4,46.7 343.6,46.7 C343.8,46.7 343.9,46.7 344.1,46.6 L363.4,35.4 C363.7,35.2 363.9,34.9 363.9,34.5 L363.8,12.1 Z M325.2,34 L325.1,14 L342.4,23.9 L342.5,43.9 L325.2,34 Z M343.5,22.2 L326.2,12.3 L343.5,2.3 L360.8,12.2 L343.5,22.2 Z M344.6,43.9 L344.5,23.9 L361.8,13.9 L361.9,33.9 L344.6,43.9 Z" id="Shape"></path>
            <polygon id="Path" points="0 43.7 5.4 43.7 5.4 24.7 22.4 24.7 22.4 20.1 5.4 20.1 5.4 7.2 23.6 7.2 23.6 2.7 0 2.7"></polygon>
            <path d="M56.4,28.1 C56.4,35.8 52.8,39.7 45.5,39.7 C41.9,39.7 39.2,38.7 37.4,36.8 C35.6,34.9 34.7,31.9 34.7,27.9 L34.7,2.7 L29.3,2.7 L29.3,27.9 C29.3,38.8 34.7,44.3 45.4,44.3 C48.3,44.3 50.8,43.9 52.9,43.1 C55,42.3 56.7,41.2 58,39.7 C59.3,38.2 60.2,36.5 60.8,34.5 C61.4,32.5 61.7,30.3 61.7,27.8 L61.7,2.7 L56.4,2.7 L56.4,28.1 Z" id="Path"></path>
            <path d="M94,26 C93.1,24.8 91.9,23.9 90.4,23.5 C93.1,22.9 95.1,21.8 96.4,20.1 C97.7,18.4 98.4,16.2 98.4,13.7 C98.4,12 98.2,10.4 97.7,9.1 C97.2,7.8 96.6,6.8 95.8,6 C95,5.2 94,4.6 92.7,4.1 C91.5,3.6 90.2,3.3 88.9,3.1 C87.6,2.9 86.1,2.8 84.4,2.8 L71.2,2.8 L71.2,43.8 L76.6,43.8 L76.6,25.5 L83.9,25.5 C85.4,25.5 86.6,25.7 87.5,26.1 C88.4,26.5 89.1,27.1 89.6,27.9 C90.1,28.7 90.7,30 91.4,31.7 L95.9,43.7 L101.6,43.7 L96.8,31.3 C95.8,29 94.9,27.2 94,26 Z M84.2,20.9 L76.6,20.9 L76.6,7.2 L84.5,7.2 L84.6,7.2 L84.7,7.2 L84.8,7.2 C85.9,7.2 86.9,7.3 87.7,7.4 C88.5,7.5 89.3,7.8 89.9,8.1 C90.6,8.4 91.1,8.8 91.5,9.3 C91.9,9.8 92.2,10.4 92.4,11.2 C92.6,12 92.7,12.9 92.7,13.9 C92.7,16.4 91.9,18.2 90.4,19.3 C89,20.4 86.9,20.9 84.2,20.9 Z" id="Shape"></path>
            <path d="M134.5,28.1 C134.5,35.8 130.9,39.7 123.6,39.7 C120,39.7 117.3,38.7 115.5,36.8 C113.7,34.9 112.8,31.9 112.8,27.9 L112.8,2.7 L107.4,2.7 L107.4,27.9 C107.4,38.8 112.8,44.3 123.5,44.3 C126.4,44.3 128.9,43.9 131,43.1 C133.1,42.3 134.8,41.2 136.1,39.7 C137.4,38.2 138.3,36.5 138.9,34.5 C139.5,32.5 139.8,30.3 139.8,27.8 L139.8,2.7 L134.5,2.7 L134.5,28.1 L134.5,28.1 Z" id="Path"></path>
            <path d="M167,39.8 C162.6,39.8 159.1,38.3 156.4,35.4 C153.7,32.5 152.3,28.5 152.3,23.5 C152.3,20.3 152.9,17.4 154.1,14.9 C155.3,12.3 157,10.3 159.3,8.8 C161.5,7.3 164.1,6.6 167.1,6.6 C171,6.6 174.4,7.7 177.5,9.9 L179.6,6.2 C176.2,3.4 171.9,2 166.7,2 C163.9,2 161.3,2.5 158.8,3.5 C156.4,4.5 154.2,6 152.5,7.8 C150.7,9.6 149.3,11.9 148.3,14.6 C147.3,17.3 146.8,20.3 146.8,23.4 C146.8,26.7 147.3,29.7 148.4,32.3 C149.5,35 151,37.1 152.8,38.8 C154.7,40.5 156.8,41.8 159.2,42.7 C161.6,43.6 164.2,44.1 166.9,44.1 C172.1,44.1 176.6,42.7 180.5,39.8 L178.7,35.5 C175,38.4 171.1,39.8 167,39.8 Z" id="Path"></path>
            <path d="M264.5,17.1 C260.7,25.6 257.9,32.2 255.9,36.7 C254,32.2 251.1,25.7 247.4,17.1 C243.6,8.6 241.5,3.7 241.1,2.7 L234.6,2.7 L234.6,43.7 L239.8,43.7 L239.8,11.2 L241.9,16.3 L254.1,43.7 L258,43.7 C258.7,42.2 260.8,37.5 264.3,29.6 C267.8,21.8 270.5,15.7 272.3,11.5 L272.3,43.7 L277.4,43.7 L277.4,2.7 L271,2.7 C270.5,3.8 268.3,8.6 264.5,17.1 Z" id="Path"></path>
            <path d="M308,21.8 C310.2,21.2 311.9,20.1 313,18.5 C314.1,16.9 314.7,15 314.7,12.7 C314.7,11.5 314.5,10.4 314.2,9.4 C313.9,8.4 313.4,7.6 312.8,6.9 C312.2,6.2 311.5,5.6 310.7,5.1 C309.8,4.6 309,4.2 308.1,3.9 C307.2,3.6 306.2,3.4 305,3.2 C303.9,3 302.8,2.9 301.7,2.8 C300.7,2.7 299.5,2.7 298.3,2.7 L287.5,2.7 L287.5,43.7 L302,43.7 C306.7,43.7 310.3,42.6 312.8,40.4 C315.3,38.2 316.6,35.4 316.6,32 C316.6,29.3 315.8,27 314.3,25.2 C312.9,23.4 310.7,22.3 308,21.8 Z M292.9,7.2 L299.1,7.2 C302.4,7.2 304.9,7.6 306.6,8.5 C308.3,9.4 309.1,11 309.1,13.3 C309.1,17.8 306.1,20 300,20 L292.9,20 L292.9,7.2 L292.9,7.2 Z M308.5,37.2 C306.8,38.4 304.4,39.1 301.2,39.1 L292.9,39.1 L292.9,24.5 L300.4,24.5 C304.2,24.5 306.9,25 308.5,26.1 C310.1,27.2 310.9,29.1 310.9,31.9 C311,34.2 310.2,36 308.5,37.2 Z" id="Shape"></path>
        </g>
    </g>
</svg>